<svg width="27" height="26" viewBox="0 0 27 26" fill="none" xmlns="http://www.w3.org/2000/svg">
<path d="M21.2231 5.32053C20.2017 4.31729 18.9851 3.52184 17.6443 2.98059C16.3034 2.43934 14.8652 2.16312 13.4134 2.16803C7.33048 2.16803 2.37282 6.98887 2.37282 12.9039C2.37282 14.7997 2.8853 16.6414 3.84341 18.2664L2.28369 23.8347L8.13262 22.3397C9.74804 23.1955 11.564 23.6505 13.4134 23.6505C19.4963 23.6505 24.4539 18.8297 24.4539 12.9147C24.4539 10.0439 23.3064 7.34637 21.2231 5.32053ZM13.4134 21.8305C11.7645 21.8305 10.1491 21.3972 8.73423 20.5847L8.4 20.3897L4.92407 21.278L5.84875 17.9847L5.62594 17.6489C4.70988 16.2264 4.22346 14.5822 4.22219 12.9039C4.22219 7.98553 8.3443 3.9772 13.4022 3.9772C15.8532 3.9772 18.1594 4.90887 19.8862 6.59887C20.7412 7.42649 21.4188 8.41092 21.8797 9.49508C22.3406 10.5792 22.5756 11.7416 22.5711 12.9147C22.5934 17.833 18.4713 21.8305 13.4134 21.8305ZM18.449 15.1572C18.1705 15.0272 16.8113 14.3772 16.5662 14.2797C16.31 14.193 16.1317 14.1497 15.9423 14.4097C15.7529 14.6805 15.2293 15.2872 15.0734 15.4605C14.9174 15.6447 14.7503 15.6664 14.4717 15.5255C14.1932 15.3955 13.302 15.103 12.2547 14.193C11.4303 13.478 10.8844 12.6005 10.7173 12.3297C10.5613 12.0589 10.695 11.918 10.8398 11.7772C10.9624 11.658 11.1184 11.463 11.2521 11.3114C11.3857 11.1597 11.4414 11.0405 11.5306 10.8672C11.6197 10.683 11.5751 10.5314 11.5083 10.4014C11.4414 10.2714 10.8844 8.9497 10.6616 8.40803C10.4388 7.88803 10.2048 7.95303 10.0377 7.9422H9.50294C9.31355 7.9422 9.02389 8.0072 8.76765 8.27803C8.52255 8.54887 7.80954 9.19887 7.80954 10.5205C7.80954 11.8422 8.80107 13.1205 8.93476 13.2939C9.06845 13.478 10.8844 16.1864 13.6473 17.3455C14.3046 17.6272 14.8171 17.7897 15.2182 17.9089C15.8755 18.1147 16.4771 18.0822 16.9562 18.0172C17.4909 17.9414 18.5939 17.3672 18.8167 16.7389C19.0506 16.1105 19.0506 15.5797 18.9726 15.4605C18.8947 15.3414 18.7275 15.2872 18.449 15.1572Z" fill="#F8F8F8"/>
</svg>
