<svg width="56" height="55" viewBox="0 0 56 55" fill="none" xmlns="http://www.w3.org/2000/svg">
<ellipse cx="28.0067" cy="27.5" rx="27.3783" ry="27.5" fill="#FF5B26"/>
<path d="M28.0066 39.1794C27.802 39.1794 27.6101 39.1471 27.4311 39.0823C27.252 39.0186 27.0857 38.9096 26.9322 38.7555L16.8022 28.5805C16.4953 28.2721 16.3418 27.9057 16.3418 27.4813C16.3418 27.0578 16.4953 26.6919 16.8022 26.3836C17.1092 26.0753 17.4673 25.9211 17.8766 25.9211C18.2859 25.9211 18.6441 26.0753 18.951 26.3836L26.4718 33.9378V16.6711C26.4718 16.2343 26.6191 15.8746 26.9138 15.5919C27.2075 15.3093 27.5717 15.168 28.0066 15.168C28.4415 15.168 28.8063 15.3155 29.101 15.6104C29.3946 15.9064 29.5415 16.2728 29.5415 16.7096V33.9378L37.0622 26.3836C37.3692 26.0753 37.7273 25.9211 38.1366 25.9211C38.5459 25.9211 38.904 26.0753 39.211 26.3836C39.518 26.6919 39.6714 27.0578 39.6714 27.4813C39.6714 27.9057 39.518 28.2721 39.211 28.5805L29.081 38.7555C28.9275 38.9096 28.7613 39.0186 28.5822 39.0823C28.4031 39.1471 28.2113 39.1794 28.0066 39.1794Z" fill="#F8F8F8"/>
</svg>
