<svg width="23" height="22" viewBox="0 0 23 22" fill="none" xmlns="http://www.w3.org/2000/svg">
<path d="M15.9923 12.7406C16.0795 12.0399 16.1448 11.3391 16.1448 10.6172C16.1448 9.8952 16.0795 9.19447 15.9923 8.49373H19.6742C19.8485 9.17323 19.9575 9.88458 19.9575 10.6172C19.9575 11.3497 19.8485 12.0611 19.6742 12.7406M14.0642 18.6437C14.7178 17.4652 15.2189 16.1912 15.5675 14.864H18.781C17.7256 16.6353 16.0513 17.977 14.0642 18.6437ZM13.7919 12.7406H8.69384C8.5849 12.0399 8.51954 11.3391 8.51954 10.6172C8.51954 9.8952 8.5849 9.18385 8.69384 8.49373H13.7919C13.8899 9.18385 13.9662 9.8952 13.9662 10.6172C13.9662 11.3391 13.8899 12.0399 13.7919 12.7406ZM11.2429 19.0684C10.3387 17.7944 9.60887 16.3823 9.16225 14.864H13.3235C12.8768 16.3823 12.147 17.7944 11.2429 19.0684ZM6.88556 6.3703H3.70473C4.74923 4.59428 6.42237 3.25043 8.41061 2.59059C7.75702 3.76909 7.26682 5.04315 6.88556 6.3703ZM3.70473 14.864H6.88556C7.26682 16.1912 7.75702 17.4652 8.41061 18.6437C6.42654 17.9766 4.75576 16.6347 3.70473 14.864ZM2.81148 12.7406C2.63719 12.0611 2.52826 11.3497 2.52826 10.6172C2.52826 9.88458 2.63719 9.17323 2.81148 8.49373H6.4934C6.40625 9.19447 6.3409 9.8952 6.3409 10.6172C6.3409 11.3391 6.40625 12.0399 6.4934 12.7406M11.2429 2.15528C12.147 3.42934 12.8768 4.85204 13.3235 6.3703H9.16225C9.60887 4.85204 10.3387 3.42934 11.2429 2.15528ZM18.781 6.3703H15.5675C15.2265 5.05532 14.7217 3.78597 14.0642 2.59059C16.0686 3.25947 17.7352 4.60785 18.781 6.3703ZM11.2429 0C5.21889 0 0.349609 4.77772 0.349609 10.6172C0.349609 13.433 1.49729 16.1335 3.54017 18.1246C4.5517 19.1105 5.75256 19.8926 7.07419 20.4261C8.39582 20.9597 9.81234 21.2343 11.2429 21.2343C14.1319 21.2343 16.9027 20.1157 18.9455 18.1246C20.9884 16.1335 22.1361 13.433 22.1361 10.6172C22.1361 9.2229 21.8543 7.84229 21.3069 6.55415C20.7595 5.26602 19.9571 4.09559 18.9455 3.1097C17.934 2.1238 16.7332 1.34175 15.4115 0.808184C14.0899 0.274621 12.6734 0 11.2429 0Z" fill="#F8F8F8"/>
</svg>
