<svg width="27" height="26" viewBox="0 0 27 26" fill="none" xmlns="http://www.w3.org/2000/svg">
<path d="M9.05732 2.16797H18.069C21.502 2.16797 24.2914 4.98464 24.2914 8.4513V17.5513C24.2914 19.2177 23.6358 20.8159 22.4689 21.9943C21.302 23.1726 19.7193 23.8346 18.069 23.8346H9.05732C5.62429 23.8346 2.83496 21.018 2.83496 17.5513V8.4513C2.83496 6.78486 3.49053 5.18667 4.65745 4.00831C5.82436 2.82996 7.40704 2.16797 9.05732 2.16797ZM8.84275 4.33464C7.81845 4.33464 6.83609 4.74553 6.1118 5.47692C5.3875 6.20831 4.9806 7.20029 4.9806 8.23463V17.768C4.9806 19.9238 6.70784 21.668 8.84275 21.668H18.2836C19.3079 21.668 20.2902 21.2571 21.0145 20.5257C21.7388 19.7943 22.1457 18.8023 22.1457 17.768V8.23463C22.1457 6.0788 20.4185 4.33464 18.2836 4.33464H8.84275ZM19.1955 5.95964C19.5511 5.95964 19.8922 6.10231 20.1437 6.35626C20.3952 6.61022 20.5365 6.95465 20.5365 7.3138C20.5365 7.67295 20.3952 8.01739 20.1437 8.27134C19.8922 8.5253 19.5511 8.66797 19.1955 8.66797C18.8398 8.66797 18.4987 8.5253 18.2472 8.27134C17.9957 8.01739 17.8544 7.67295 17.8544 7.3138C17.8544 6.95465 17.9957 6.61022 18.2472 6.35626C18.4987 6.10231 18.8398 5.95964 19.1955 5.95964ZM13.5632 7.58463C14.9858 7.58464 16.3502 8.15532 17.3561 9.17114C18.3621 10.187 18.9273 11.5647 18.9273 13.0013C18.9273 14.4379 18.3621 15.8156 17.3561 16.8315C16.3502 17.8473 14.9858 18.418 13.5632 18.418C12.1405 18.418 10.7761 17.8473 9.77017 16.8315C8.7642 15.8156 8.19906 14.4379 8.19906 13.0013C8.19906 11.5647 8.7642 10.187 9.77017 9.17114C10.7761 8.15532 12.1405 7.58464 13.5632 7.58463ZM13.5632 9.7513C12.7096 9.7513 11.8909 10.0937 11.2874 10.7032C10.6838 11.3127 10.3447 12.1393 10.3447 13.0013C10.3447 13.8633 10.6838 14.6899 11.2874 15.2994C11.8909 15.9089 12.7096 16.2513 13.5632 16.2513C14.4167 16.2513 15.2354 15.9089 15.839 15.2994C16.4425 14.6899 16.7816 13.8633 16.7816 13.0013C16.7816 12.1393 16.4425 11.3127 15.839 10.7032C15.2354 10.0937 14.4167 9.7513 13.5632 9.7513Z" fill="#F8F8F8"/>
</svg>
